# xmcd
#
# Track frame offsets: 
#        150
#        24972
#        35252
#        48476
#        58933
#        91891
#        103323
#        113035
#        132187
#        144353
#        162267
#        192501
#        207120
#        219549
#        230618
#        245334
#        262346
#        277786
#
# Disc length: 3981 seconds
#
# Revision: 3
# Processed by: cddbd v1.5.2PL0 Copyright (c) Steve Scherf et al.
# Submitted via: ExactAudioCopy v1.0b3
#
DISCID=050f8b12
DTITLE=The Legendary Blues Singers - Play Me The Blues...
DYEAR=2001
DGENRE=Blues
TTITLE0=Ike and Tina Turner - All I Can Do Is Cry
TTITLE1=Johnny Winter - Shed So Many Tears
TTITLE2=Mississippi John Hurt - Ain't No Tellin'
TTITLE3=Johnny Winter - Out Of Sight
TTITLE4=John Lee Hooker - Tupelo
TTITLE5=Lightning Slim - Bad Luck Blues
TTITLE6=Lightnin' Hopkins - Heavy Snow
TTITLE7=John Mayall - John Lee Boogie
TTITLE8=Otis Rush - Double Trouble
TTITLE9=Muddy Waters - Everything's Gonna Be Alright
TTITLE10=Brownie McGhee and Sonny Terry - Everybody's Blue
TTITLE11=Bessie Smith - Mean Old Bed Bug Blues
TTITLE12=Eric Clapton - Freight Loader
TTITLE13=Canned Heat - Can't Hold On
TTITLE14=John Lee Hooker - Moanin' Blues
TTITLE15=Nina Simone - Sea Line Woman
TTITLE16=Big Joe Williams - Nobody Knows You When Your Down And Out
TTITLE17=Mike Bloomfield - Women Lovin' Each Other
EXTD=The Legendary Blues Singers
EXTT0=
EXTT1=
EXTT2=
EXTT3=
EXTT4=
EXTT5=
EXTT6=
EXTT7=
EXTT8=
EXTT9=
EXTT10=
EXTT11=
EXTT12=
EXTT13=
EXTT14=
EXTT15=
EXTT16=
EXTT17=
PLAYORDER=
